<svg width="31" height="31" viewBox="0 0 31 31" fill="none" xmlns="http://www.w3.org/2000/svg">
<path d="M26.5401 31L18.2417 22.2416L22.3361 17.9009L30.671 26.6592L26.5401 31ZM5.73939 31L1.60849 26.6592L11.9906 15.7113L9.4316 13.0223L8.37146 14.1363L6.9092 12.6766V15.3271L5.59316 16.71L0 10.8327L1.31604 9.44982H3.875L2.44929 7.95167L8.40802 1.72862C8.96855 1.13961 9.59635 0.704254 10.2914 0.422552C10.9855 0.140851 11.6859 0 12.3927 0C13.1238 0 13.8491 0.146997 14.5685 0.440991C15.287 0.73601 15.9143 1.16522 16.4505 1.72862L12.7217 5.60843L14.5861 7.56753L13.4894 8.68154L16.1215 11.4089L19.4847 7.87485C19.4116 7.64436 19.357 7.37547 19.3209 7.06815C19.2839 6.76084 19.2653 6.47914 19.2653 6.22305C19.2653 4.50723 19.8322 3.0475 20.9659 1.84387C22.0987 0.640231 23.4815 0.0384137 25.1144 0.0384137C25.6262 0.0384137 26.1199 0.102437 26.5957 0.230483C27.0704 0.358529 27.5393 0.563403 28.0024 0.845105L24.237 4.84015L26.467 7.1834L30.2689 3.14994C30.5857 3.6109 30.787 4.10363 30.8728 4.6281C30.9576 5.15361 31 5.68525 31 6.22305C31 7.93887 30.4395 9.39194 29.3184 10.5823C28.1973 11.7736 26.8082 12.3693 25.1509 12.3693C24.9072 12.3693 24.6572 12.3437 24.4008 12.2924C24.1454 12.2412 23.908 12.19 23.6887 12.1388L5.73939 31Z" fill="#ffffff"/>
</svg>
