<svg xmlns="http://www.w3.org/2000/svg" xmlns:xlink="http://www.w3.org/1999/xlink" width="500" zoomAndPan="magnify" viewBox="0 0 375 374.999991" height="500" preserveAspectRatio="xMidYMid meet" version="1.0"><path fill="rgb(74.119568%, 71.369934%, 2.349854%)" d="M 109.523438 168.464844 C 105.425781 174.976562 96.828125 176.929688 90.316406 172.835938 L 72.832031 161.847656 C 66.320312 157.753906 64.367188 149.15625 68.464844 142.652344 C 72.558594 136.148438 81.15625 134.199219 87.667969 138.292969 L 105.148438 149.28125 C 111.660156 153.375 113.621094 161.972656 109.523438 168.464844 Z M 120.460938 147.238281 L 90.324219 128.296875 C 79.105469 121.242188 64.285156 124.609375 57.226562 135.816406 C 50.167969 147.03125 53.535156 161.828125 64.757812 168.882812 L 94.894531 187.835938 C 106.109375 194.890625 120.929688 191.519531 127.988281 180.316406 C 135.050781 169.101562 131.679688 154.292969 120.460938 147.238281 " fill-opacity="1" fill-rule="nonzero"/><path fill="rgb(74.119568%, 71.369934%, 2.349854%)" d="M 194.339844 223.152344 C 213.03125 207.789062 291.566406 245.355469 291.566406 245.355469 L 324.644531 199.234375 L 225.84375 148.222656 L 221.027344 154.46875 L 209.152344 149.140625 L 210.839844 140.667969 L 166.785156 118.992188 L 84.167969 142.085938 L 87.742188 231.148438 " fill-opacity="1" fill-rule="nonzero"/><path fill="rgb(74.119568%, 71.369934%, 2.349854%)" d="M 212.105469 177.304688 C 217.6875 217.71875 189.417969 255.003906 148.96875 260.582031 C 108.511719 266.160156 71.199219 237.921875 65.617188 197.5 C 60.035156 157.085938 88.300781 119.800781 128.757812 114.222656 C 169.207031 108.644531 206.523438 136.890625 212.105469 177.304688 " fill-opacity="1" fill-rule="nonzero"/><path fill="rgb(74.119568%, 71.369934%, 2.349854%)" d="M 191.136719 184.007812 C 195.292969 214.089844 174.253906 241.847656 144.136719 246 C 114.027344 250.152344 86.253906 229.125 82.097656 199.042969 C 77.945312 168.957031 98.984375 141.203125 129.089844 137.050781 C 159.207031 132.898438 186.980469 153.925781 191.136719 184.007812 " fill-opacity="1" fill-rule="nonzero"/></svg>