<svg width="31" height="31" viewBox="0 0 31 31" fill="yellow" xmlns="http://www.w3.org/2000/svg">
<g clip-path="url(#clip0_32_48)">
<path d="M24.5417 3.875H6.45833C4.74611 3.87705 3.1046 4.55814 1.89387 5.76887C0.683139 6.9796 0.00205098 8.62111 0 10.3333H31C30.9979 8.62111 30.3169 6.9796 29.1061 5.76887C27.8954 4.55814 26.2539 3.87705 24.5417 3.875Z" fill="white"/>
<path d="M0 20.6667C0.00205098 22.3789 0.683139 24.0204 1.89387 25.2311C3.1046 26.4419 4.74611 27.1229 6.45833 27.125H24.5417C26.2539 27.1229 27.8954 26.4419 29.1061 25.2311C30.3169 24.0204 30.9979 22.3789 31 20.6667V12.9167H0V20.6667ZM9.04167 20.0208C9.04167 20.404 8.92803 20.7786 8.71514 21.0972C8.50224 21.4159 8.19965 21.6642 7.84561 21.8108C7.49158 21.9575 7.10202 21.9959 6.72618 21.9211C6.35034 21.8463 6.00511 21.6618 5.73415 21.3909C5.46318 21.1199 5.27865 20.7747 5.20389 20.3988C5.12914 20.023 5.1675 19.6334 5.31415 19.2794C5.46079 18.9254 5.70913 18.6228 6.02775 18.4099C6.34637 18.197 6.72096 18.0833 7.10417 18.0833C7.61802 18.0833 8.11083 18.2875 8.47418 18.6508C8.83754 19.0142 9.04167 19.507 9.04167 20.0208Z" fill="white"/>
</g>
<defs>
<clipPath id="clip0_32_48">
<rect width="31" height="31" fill="white"/>
</clipPath>
</defs>
</svg>
