<svg width="31" height="28" viewBox="0 0 31 28" fill="none" xmlns="http://www.w3.org/2000/svg">
<path d="M1.13015 14.0177C0.764179 13.2427 0.484318 12.4677 0.290568 11.6927C0.096818 10.9177 -5.69743e-05 10.1535 -5.69743e-05 9.4C-5.69743e-05 7.03194 0.828763 5.0191 2.4864 3.36146C4.14404 1.70382 6.15689 0.875 8.52494 0.875C9.88119 0.875 11.1677 1.15486 12.3844 1.71458C13.6003 2.27431 14.6388 3.07083 15.4999 4.10417C16.3611 3.07083 17.4 2.27431 18.6167 1.71458C19.8326 1.15486 21.1187 0.875 22.4749 0.875C24.843 0.875 26.8558 1.70382 28.5135 3.36146C30.1711 5.0191 30.9999 7.03194 30.9999 9.4C30.9999 10.1535 30.9031 10.9177 30.7093 11.6927C30.5156 12.4677 30.2357 13.2319 29.8697 13.9854C29.3961 13.4687 28.842 13.0597 28.2074 12.7583C27.5719 12.4569 26.8989 12.2847 26.1885 12.2417C26.4253 11.7465 26.6083 11.2622 26.7374 10.7885C26.8666 10.3149 26.9312 9.85208 26.9312 9.4C26.9312 8.17292 26.495 7.12322 25.6227 6.25092C24.7513 5.37947 23.702 4.94375 22.4749 4.94375C21.0111 4.94375 19.8219 5.29336 18.9074 5.99258C17.992 6.69267 16.8562 7.85 15.4999 9.46458C14.1437 7.85 13.0083 6.69267 12.0938 5.99258C11.1785 5.29336 9.98883 4.94375 8.52494 4.94375C7.29786 4.94375 6.2486 5.37947 5.37715 6.25092C4.50485 7.12322 4.06869 8.17292 4.06869 9.4C4.06869 9.85208 4.13328 10.3149 4.26244 10.7885C4.39161 11.2622 4.5746 11.7465 4.8114 12.2417C4.12251 12.2847 3.46075 12.4621 2.82611 12.7738C2.19061 13.0864 1.62529 13.501 1.13015 14.0177V14.0177ZM-0.516724 28V25.449C-0.516724 24.351 0.0107069 23.4684 1.06557 22.801C2.12043 22.1337 3.48744 21.8 5.16661 21.8H5.71557C5.37112 22.3167 5.10719 22.8764 4.92378 23.4792C4.74122 24.0819 4.64994 24.717 4.64994 25.3844V28H-0.516724ZM7.23328 28V25.3844C7.23328 23.8344 7.99751 22.5802 9.52598 21.6217C11.0545 20.6642 13.0458 20.1854 15.4999 20.1854C17.9756 20.1854 19.9726 20.6642 21.4907 21.6217C23.008 22.5802 23.7666 23.8344 23.7666 25.3844V28H7.23328ZM26.3499 28V25.3844C26.3499 24.717 26.2638 24.0819 26.0916 23.4792C25.9194 22.8764 25.6611 22.3167 25.3166 21.8H25.8333C27.534 21.8 28.9066 22.1337 29.9511 22.801C30.9948 23.4684 31.5166 24.351 31.5166 25.449V28H26.3499ZM5.16661 20.6375C4.37008 20.6375 3.68679 20.3525 3.11673 19.7824C2.54582 19.2115 2.26036 18.5278 2.26036 17.7312C2.26036 16.9132 2.54582 16.2243 3.11673 15.6646C3.68679 15.1049 4.37008 14.825 5.16661 14.825C5.98467 14.825 6.67355 15.1049 7.23328 15.6646C7.793 16.2243 8.07286 16.9132 8.07286 17.7312C8.07286 18.5278 7.793 19.2115 7.23328 19.7824C6.67355 20.3525 5.98467 20.6375 5.16661 20.6375V20.6375ZM25.8333 20.6375C25.0367 20.6375 24.3535 20.3525 23.7834 19.7824C23.2125 19.2115 22.927 18.5278 22.927 17.7312C22.927 16.9132 23.2125 16.2243 23.7834 15.6646C24.3535 15.1049 25.0367 14.825 25.8333 14.825C26.6513 14.825 27.3402 15.1049 27.8999 15.6646C28.4597 16.2243 28.7395 16.9132 28.7395 17.7312C28.7395 18.5278 28.4597 19.2115 27.8999 19.7824C27.3402 20.3525 26.6513 20.6375 25.8333 20.6375ZM15.4999 19.249C14.2729 19.249 13.2344 18.824 12.3844 17.9741C11.5337 17.1233 11.1083 16.0844 11.1083 14.8573C11.1083 13.6302 11.5337 12.5913 12.3844 11.7405C13.2344 10.8906 14.2729 10.4656 15.4999 10.4656C16.727 10.4656 17.766 10.8906 18.6167 11.7405C19.4667 12.5913 19.8916 13.6302 19.8916 14.8573C19.8916 16.0844 19.4667 17.1233 18.6167 17.9741C17.766 18.824 16.727 19.249 15.4999 19.249Z" fill="#FFE81D"/>
</svg>
