<svg width="31" height="31" viewBox="0 0 31 31" fill="none" xmlns="http://www.w3.org/2000/svg">
<g clip-path="url(#clip0_32_62)">
<path d="M15.5 19.3654C13.3599 19.3654 11.625 21.1003 11.625 23.2404V30.9904H19.375V23.2404C19.375 21.1003 17.6401 19.3654 15.5 19.3654Z" fill="#ffffff"/>
<path d="M21.9584 23.2404V30.9904H27.125C29.2651 30.9904 31 29.2555 31 27.1154V15.3341C31.0003 14.6631 30.7395 14.0182 30.2728 13.5361L19.2962 1.66952C17.3595 -0.426009 14.0907 -0.554671 11.9951 1.3821C11.8956 1.47413 11.7997 1.56998 11.7077 1.66952L0.750479 13.5322C0.269615 14.0164 -0.000181549 14.6711 9.16576e-08 15.3535V27.1154C9.16576e-08 29.2555 1.73491 30.9904 3.875 30.9904H9.04165V23.2404C9.0658 19.7182 11.9095 16.842 15.3429 16.7592C18.8912 16.6736 21.9313 19.5988 21.9584 23.2404Z" fill="#ffffff"/>
<path d="M15.5 19.3654C13.3599 19.3654 11.625 21.1003 11.625 23.2404V30.9904H19.375V23.2404C19.375 21.1003 17.6401 19.3654 15.5 19.3654Z" fill="#ffffff"/>
</g>
<defs>
<clipPath id="clip0_32_62">
<rect width="31" height="31" fill="white"/>
</clipPath>
</defs>
</svg>
