<svg width="31" height="31" viewBox="0 0 31 31" fill="none" xmlns="http://www.w3.org/2000/svg">
<g clip-path="url(#clip0_32_54)">
<path d="M20.7222 18.0833H10.2778C8.58029 18.0854 6.95291 18.7606 5.7526 19.9609C4.55229 21.1612 3.87705 22.7886 3.875 24.4861V31H27.125V24.4861C27.1229 22.7886 26.4477 21.1612 25.2474 19.9609C24.0471 18.7606 22.4197 18.0854 20.7222 18.0833V18.0833Z" fill="white"/>
<path d="M15.5 15.5C19.7802 15.5 23.25 12.0302 23.25 7.75C23.25 3.46979 19.7802 0 15.5 0C11.2198 0 7.75 3.46979 7.75 7.75C7.75 12.0302 11.2198 15.5 15.5 15.5Z" fill="white"/>
</g>
<defs>
<clipPath id="clip0_32_54">
<rect width="31" height="31" fill="white"/>
</clipPath>
</defs>
</svg>
