<svg width="28" height="29" viewBox="0 0 28 29" fill="none" xmlns="http://www.w3.org/2000/svg">
<path d="M10.2687 17.0177C9.77361 17.0177 9.36458 16.8562 9.04167 16.5333C8.71875 16.2104 8.55729 15.8014 8.55729 15.3063C8.55729 14.8111 8.71875 14.4021 9.04167 14.0792C9.36458 13.7563 9.77361 13.5948 10.2687 13.5948C10.7639 13.5948 11.1729 13.7563 11.4958 14.0792C11.8187 14.4021 11.9802 14.8111 11.9802 15.3063C11.9802 15.8014 11.8187 16.2104 11.4958 16.5333C11.1729 16.8562 10.7639 17.0177 10.2687 17.0177ZM17.6958 17.0177C17.2007 17.0177 16.7917 16.8562 16.4687 16.5333C16.1458 16.2104 15.9844 15.8014 15.9844 15.3063C15.9844 14.8111 16.1458 14.4021 16.4687 14.0792C16.7917 13.7563 17.2007 13.5948 17.6958 13.5948C18.191 13.5948 18.6 13.7563 18.9229 14.0792C19.2458 14.4021 19.4073 14.8111 19.4073 15.3063C19.4073 15.8014 19.2458 16.2104 18.9229 16.5333C18.6 16.8562 18.191 17.0177 17.6958 17.0177ZM13.9823 23.9604C16.7378 23.9604 19.09 23.0024 21.0387 21.0865C22.9865 19.1705 23.9604 16.8347 23.9604 14.0792C23.9604 13.5625 23.9281 13.0781 23.8635 12.626C23.799 12.174 23.6806 11.7326 23.5083 11.3021C23.0563 11.4097 22.6205 11.4902 22.2012 11.5436C21.7809 11.5979 21.3233 11.625 20.8281 11.625C18.9337 11.625 17.1525 11.2211 15.4845 10.4134C13.8157 9.60656 12.3785 8.47118 11.1729 7.00729C10.5271 8.60035 9.58546 9.98889 8.34804 11.1729C7.10976 12.3569 5.68333 13.2611 4.06875 13.8854V14.0792C4.06875 16.8347 5.0319 19.1705 6.95821 21.0865C8.88537 23.0024 11.2267 23.9604 13.9823 23.9604ZM14.0146 28.0292C12.0771 28.0292 10.258 27.6632 8.55729 26.9312C6.8566 26.1993 5.37118 25.1983 4.10104 23.9281C2.8309 22.658 1.82986 21.1726 1.09792 19.4719C0.365972 17.7712 0 15.9521 0 14.0146C0 12.0771 0.365972 10.258 1.09792 8.55729C1.82986 6.8566 2.8309 5.37118 4.10104 4.10104C5.37118 2.8309 6.8566 1.82986 8.55729 1.09792C10.258 0.365972 12.0771 0 14.0146 0C15.9521 0 17.766 0.365972 19.4564 1.09792C21.1459 1.82986 22.6257 2.8309 23.8958 4.10104C25.166 5.37118 26.167 6.8566 26.899 8.55729C27.6309 10.258 27.9969 12.0771 27.9969 14.0146C27.9969 15.9521 27.6309 17.7712 26.899 19.4719C26.167 21.1726 25.166 22.658 23.8958 23.9281C22.6257 25.1983 21.1459 26.1993 19.4564 26.9312C17.766 27.6632 15.9521 28.0292 14.0146 28.0292V28.0292Z" fill="#ffffff"/>
</svg>
