<svg width="31" height="31" viewBox="0 0 31 31" fill="none" xmlns="http://www.w3.org/2000/svg">
<g clip-path="url(#clip0_32_51)">
<path d="M18.0835 15.5C18.0835 15.8426 18.2196 16.1711 18.4618 16.4133C18.7041 16.6556 19.0326 16.7917 19.3752 16.7917H25.7444C25.4316 19.288 24.2181 21.5843 22.3317 23.2491C20.4454 24.9138 18.0161 25.8325 15.5002 25.8325C12.9843 25.8325 10.5549 24.9138 8.6686 23.2491C6.78226 21.5843 5.56871 19.288 5.25595 16.7917H11.6252C11.9677 16.7917 12.2963 16.6556 12.5385 16.4133C12.7807 16.1711 12.9168 15.8426 12.9168 15.5C12.9168 15.1574 12.7807 14.8289 12.5385 14.5867C12.2963 14.3444 11.9677 14.2083 11.6252 14.2083H5.16683V11.625H11.6252C11.9677 11.625 12.2963 11.4889 12.5385 11.2467C12.7807 11.0044 12.9168 10.6759 12.9168 10.3333C12.9168 9.99076 12.7807 9.66222 12.5385 9.41999C12.2963 9.17775 11.9677 9.04167 11.6252 9.04167H5.25595C5.56871 6.54528 6.78226 4.24901 8.6686 2.58425C10.5549 0.919482 12.9843 0.000804901 15.5002 0.000804901C18.0161 0.000804901 20.4454 0.919482 22.3317 2.58425C24.2181 4.24901 25.4316 6.54528 25.7444 9.04167H19.3752C19.0326 9.04167 18.7041 9.17775 18.4618 9.41999C18.2196 9.66222 18.0835 9.99076 18.0835 10.3333C18.0835 10.6759 18.2196 11.0044 18.4618 11.2467C18.7041 11.4889 19.0326 11.625 19.3752 11.625H25.8335V14.2083H19.3752C19.0326 14.2083 18.7041 14.3444 18.4618 14.5867C18.2196 14.8289 18.0835 15.1574 18.0835 15.5Z" fill="white"/>
<path d="M1.29167 15.5C1.63424 15.5 1.96278 15.6361 2.20502 15.8783C2.44725 16.1206 2.58334 16.4491 2.58334 16.7917C2.58676 19.8738 3.81263 22.8286 5.99199 25.008C8.17137 27.1874 11.1262 28.4132 14.2083 28.4167H16.7917C19.8737 28.4129 22.8283 27.1869 25.0076 25.0076C27.1869 22.8283 28.4129 19.8737 28.4167 16.7917C28.4167 16.4491 28.5528 16.1206 28.795 15.8783C29.0372 15.6361 29.3658 15.5 29.7083 15.5C30.0509 15.5 30.3794 15.6361 30.6217 15.8783C30.8639 16.1206 31 16.4491 31 16.7917C30.9956 20.5586 29.4972 24.1699 26.8336 26.8336C24.17 29.4972 20.5586 30.9956 16.7917 31H14.2083C10.4414 30.9956 6.83005 29.4972 4.16644 26.8336C1.50282 24.1699 0.00444794 20.5586 3.8147e-06 16.7917C3.8147e-06 16.4491 0.136089 16.1206 0.378323 15.8783C0.620558 15.6361 0.949099 15.5 1.29167 15.5Z" fill="white"/>
</g>
<defs>
<clipPath id="clip0_32_51">
<rect width="31" height="31" fill="blue" transform="matrix(-1 0 0 1 31 0)"/>
</clipPath>
</defs>
</svg>
