<svg width="31" height="31" viewBox="0 0 31 31" fill="none" xmlns="http://www.w3.org/2000/svg">
<path d="M4.61702 31C3.34673 31 2.25965 30.5256 1.35579 29.5769C0.451931 28.6282 0 27.4872 0 26.1538V0L2.71158 2.69231L5.2766 0L7.84161 2.69231L10.4066 0L12.9716 2.69231L15.5 0L18.0284 2.69231L20.5934 0L23.1584 2.69231L25.7234 0L28.2884 2.69231L31 0V26.1538C31 27.4872 30.5481 28.6282 29.6442 29.5769C28.7403 30.5256 27.6533 31 26.383 31H4.61702ZM4.61702 26.1538H13.4846V16.9231H4.61702V26.1538ZM17.5154 26.1538H26.383V23.6923H17.5154V26.1538ZM17.5154 19.4231H26.383V16.9231H17.5154V19.4231ZM4.61702 12.6923H26.383V9.23077H4.61702V12.6923Z" fill="#ffffff"/>
</svg>
