<svg width="68" height="68" viewBox="0 0 68 68" fill="none" xmlns="http://www.w3.org/2000/svg">
<path d="M19.8604 30.5483C19.1174 31.7291 17.5583 32.0833 16.3775 31.3409L13.207 29.3484C12.0263 28.606 11.6721 27.047 12.4151 25.8676C13.1575 24.6883 14.7165 24.3348 15.8973 25.0771L19.0671 27.0697C20.2479 27.812 20.6035 29.371 19.8604 30.5483ZM21.8438 26.6992L16.379 23.2645C14.3446 21.9853 11.6572 22.5958 10.3773 24.628C9.0973 26.6617 9.70788 29.3448 11.7429 30.6241L17.2077 34.0609C19.2413 35.3402 21.9288 34.7289 23.2087 32.6974C24.4894 30.6638 23.8781 27.9785 21.8438 26.6992Z" fill="#FFE81D"/>
<path d="M35.2405 40.465C38.6299 37.6791 52.8709 44.4911 52.8709 44.4911L58.8691 36.1278L40.9532 26.8777L40.0799 28.0103L37.9265 27.0442L38.2325 25.5078L30.2439 21.5773L15.2627 25.7649L15.9108 41.9149" fill="#FFE81D"/>
<path d="M38.4617 32.1513C39.4739 39.4797 34.3477 46.2407 27.0129 47.2522C19.6767 48.2637 12.9107 43.1432 11.8985 35.8133C10.8863 28.4849 16.0118 21.7239 23.348 20.7124C30.6828 19.7009 37.4495 24.8228 38.4617 32.1513Z" fill="#FFE81D"/>
<path d="M34.6597 33.3668C35.4134 38.8216 31.5983 43.855 26.137 44.608C20.6772 45.361 15.6409 41.548 14.8873 36.0931C14.1343 30.6375 17.9494 25.6048 23.4085 24.8519C28.8698 24.0989 33.906 27.9119 34.6597 33.3668Z" fill="#FFE81D"/>
</svg>
